<svg width="511.992" height="511.992" xmlns="http://www.w3.org/2000/svg">

 <g>
  <title>background</title>
  <rect fill="none" id="canvas_background" height="402" width="582" y="-1" x="-1"/>
 </g>
 <g>
  <title>Layer 1</title>
  <g fill="white" id="svg_1">
   <path id="svg_2" d="m287.997986,97.850998l0,-62.671997c0,-16.354 -18.554993,-25.786001 -31.783997,-16.171001c-35.292999,25.651001 -59.653992,64.674999 -64.212997,110.838985l63.999985,0c17.671021,0 31.997009,-14.324997 31.997009,-31.995995l0,0.000008z"/>
   <path id="svg_3" d="m511.790985,136.617004c-2.490997,-48.880005 -27.154999,-90.533993 -64.050995,-117.528004c-13.180023,-9.643001 -31.740997,-0.133001 -31.740997,16.197998l0,77.561001c0,26.950005 -22.050018,49.000008 -49,49.000008l-78.997009,0l-64,0l-32.003006,0l0,49.75l-182.623987,182.623978c-12.5,12.492004 -12.499001,32.757996 0.000999,45.25l48.000002,48c6.241997,6.25 14.437996,9.375 22.625,9.375s16.382996,-2.625 22.625,-8.875l182.624985,-182.125l66.747009,0c5,0.002014 9.233002,-0.082001 13.916992,-0.477997c84.584015,-7.15799 150.197021,-83.974991 145.876007,-168.751984zm-415.790009,296.230011c-17.672997,0 -32,-14.328003 -32,-32c0,-17.673981 14.327003,-32 32,-32c17.674004,0 32,14.326019 32,32c0,17.671997 -14.325996,32 -32,32zm176,-191l-32,0l16,-32l32,0l-16,32zm64,0l-32,0l16,-32l32,0l-16,32zm64,0l-32,0l16,-32l32,0l-16,32z"/>
  </g>
 </g>
</svg>